name C:\Users\tom_v\My Drive\PostDoc\MusculoskeletalSpecialization\ResultsSprinting\Case_3\motion.mot
datacolumns 32
datarows 10
range 0.00000000 0.05065901
endheader 
time	pelvis_tilt	pelvis_list	pelvis_rotation	pelvis_tx	pelvis_ty	pelvis_tz	hip_flexion_r	hip_adduction_r	hip_rotation_r	knee_angle_r	ankle_angle_r	subtalar_angle_r	mtp_angle_r	hip_flexion_l	hip_adduction_l	hip_rotation_l	knee_angle_l	ankle_angle_l	subtalar_angle_l	mtp_angle_l	lumbar_extension	lumbar_bending	lumbar_rotation	arm_flex_r	arm_add_r	arm_rot_r	elbow_flex_r	arm_flex_l	arm_add_l	arm_rot_l	elbow_flex_l	
          0.00000000	        -10.66168490	         -2.42344693	          0.14015926	          0.00000000	          0.89549921	          0.00007720	         41.75548866	          7.73610655	          4.66751689	        -38.35908929	          5.48200775	         -6.42148523	          0.33259534	          2.01685429	         -2.14585812	          2.36601990	        -52.60523772	         -8.38564669	         13.61428921	         16.55366456	         -2.73752768	          4.95573924	         -4.05709804	          8.19003507	         -5.63475244	          6.23072244	         20.97823608	          7.46397632	         -5.30541641	         14.63008627	         13.75634878	
          0.00562878	        -10.59640344	         -2.37150456	          0.30744036	          0.01958006	          0.89231198	          0.00038694	         40.82174843	          8.03587961	          5.24306971	        -39.60914765	          8.10039797	         -6.85747872	          1.26364907	          3.15582403	         -2.23343614	          2.14871492	        -54.69804825	         -7.44741413	         13.46397464	         15.38690402	         -2.60876245	          4.86545907	         -3.80536913	          8.48997234	         -5.65114276	          7.03427267	         19.41867821	          7.92612271	         -5.01465221	         14.48870371	         12.32971988	
          0.01125756	        -10.53991441	         -2.32784635	          0.46867354	          0.03897738	          0.88920570	          0.00069131	         39.79432242	          8.33817072	          5.78888146	        -40.66653719	         10.63768770	         -7.32962818	          2.32761613	          4.41225899	         -2.31388115	          1.93188684	        -56.83519276	         -6.52997477	         13.24900738	         14.29788612	         -2.50075921	          4.78032704	         -3.53124500	          8.70166463	         -5.69539345	          7.82916245	         18.16914350	          8.31925092	         -4.78009014	         14.35531149	         11.22215132	
          0.01688634	        -10.49347354	         -2.28863662	          0.62063033	          0.05810991	          0.88630008	          0.00100084	         38.75853290	          8.64621857	          6.30541569	        -41.63714547	         12.98047826	         -7.84200826	          3.38841770	          5.78681914	         -2.37569151	          1.72989807	        -58.99399650	         -5.63339001	         12.97214942	         13.27987985	         -2.42568597	          4.69342814	         -3.23822060	          8.83265261	         -5.76902464	          8.60506105	         17.25400140	          8.63850247	         -4.60960774	         14.22014418	         10.47637721	
          0.02251512	        -10.45750591	         -2.25014117	          0.76383430	          0.07696245	          0.88367568	          0.00131550	         37.75230049	          8.94858921	          6.77425883	        -42.56176045	         14.97607905	         -8.38090381	          4.51089592	          7.26760077	         -2.41419071	          1.54208534	        -61.13893347	         -4.75417438	         12.63711619	         12.32866749	         -2.38587309	          4.59870753	         -2.92986439	          8.87769270	         -5.87656465	          9.34454045	         16.70010751	          8.87350564	         -4.50745946	         14.07382126	         10.12650229	
          0.02814390	        -10.43200712	         -2.20442697	          0.89808341	          0.09555712	          0.88138568	          0.00162935	         36.76939349	          9.22370227	          7.18035632	        -43.41929176	         16.54250954	         -8.92201100	          5.78102995	          8.83718058	         -2.42131399	          1.36213283	        -63.23288676	         -3.88989756	         12.24979920	         11.44077238	         -2.37863391	          4.48648271	         -2.60790285	          8.82752641	         -6.02298801	         10.02920914	         16.52814979	          9.01132034	         -4.47543359	         13.90238799	         10.19871688	
          0.03377268	        -10.41625869	         -2.14595719	          1.02305913	          0.11393347	          0.87946112	          0.00193580	         35.78283649	          9.45475462	          7.52303644	        -44.17728750	         17.74924222	         -9.42249653	          7.19843754	         10.47696314	         -2.39327614	          1.18170716	        -65.24262182	         -3.04151886	         11.81678467	         10.61318876	         -2.39975470	          4.35076530	         -2.27436335	          8.67472172	         -6.21243694	         10.64332157	         16.74759856	          9.03901603	         -4.51275572	         13.68761016	         10.71000475	
          0.03940145	        -10.40990810	         -2.07106679	          1.13831806	          0.13213393	          0.87791458	          0.00222993	         34.76494758	          9.63002343	          7.80752946	        -44.80354145	         18.68345759	         -9.85074177	          8.74486664	         12.17068401	         -2.32871715	          0.99411971	        -67.14226014	         -2.21141671	         11.34458724	          9.84241972	         -2.44416557	          4.18791436	         -1.93140187	          8.41623360	         -6.44671433	         11.17511127	         17.35368321	          8.94695787	         -4.61613782	         13.41248359	         11.66431418	
          0.04503023	        -10.41240397	         -1.97775972	          1.24330598	          0.15019477	          0.87674767	          0.00250873	         33.69767435	          9.74209691	          8.03853517	        -45.27714616	         19.40329882	        -10.18940808	         10.40619701	         13.90480620	         -2.22751930	          0.79578338	        -68.91482777	         -1.40155780	         10.83954046	          9.12492868	         -2.50778092	          3.99610068	         -1.58099558	          8.05481370	         -6.72473595	         11.61766057	         18.32669250	          8.73146513	         -4.77945590	         13.06600222	         13.04955947	
          0.05065901	        -10.42323022	         -1.86424198	          1.33749872	          0.16814524	          0.87595421	          0.00277057	         32.57306365	          9.78601213	          8.21945918	        -45.59042855	         19.94587432	        -10.42902369	         12.16809269	         15.66830600	         -2.08928316	          0.58497649	        -70.55021702	         -0.61340723	         10.30766472	          8.45688680	         -2.58730544	          3.77355447	         -1.22510540	          7.59849367	         -7.04234068	         11.96939548	         19.63321931	          8.39550471	         -4.99410184	         12.64633742	         14.83634597	
